<svg xmlns="http://www.w3.org/2000/svg" xmlns:xlink="http://www.w3.org/1999/xlink" width="2048.317" height="1268.211" viewBox="0 0 2048.317 1268.211">
  <defs>
    <linearGradient id="linear-gradient" x1="1" y1="0.301" x2="0.012" y2="1.794" gradientUnits="objectBoundingBox">
      <stop offset="0" stop-color="#12ebdb"/>
      <stop offset="0.268" stop-color="#00c2d0"/>
      <stop offset="0.535" stop-color="#0099ba"/>
      <stop offset="0.787" stop-color="#00719a"/>
      <stop offset="1" stop-color="#1f4c73"/>
    </linearGradient>
    <linearGradient id="linear-gradient-2" x1="0.459" y1="-0.197" x2="0.5" y2="1" gradientUnits="objectBoundingBox">
      <stop offset="0" stop-color="#df23d3" stop-opacity="0.149"/>
      <stop offset="1" stop-color="#4f1268" stop-opacity="0.239"/>
    </linearGradient>
  </defs>
  <g id="Group_5" data-name="Group 5" transform="translate(101.612 30.61)">
    <path id="center-bottom" d="M1441.892,1009.223c509.786-58.887,247.456,40.02,348.174,57.205,463.3-34.371,453.866-25.959,427.68,36.534-8.058,49.994,516.431,61.291,485.441,0-6.154-56.088-88.7-90.846,241.29-78.371,1.916.072,4.262.163,6.63.255,198.336-3.605,213.166-83.25,213.166-83.25s-.046,121.178,0,149.4c.076,45.958,4.942,931.8,4.942,931.8H1244.306s-1.495-1013.349,0-1081.2C1242.5,939.236,1328.778,1022.443,1441.892,1009.223Z" transform="translate(-1246.306 -941.799)" fill="url(#linear-gradient)"/>
    <g id="Group_1" data-name="Group 1" transform="translate(78.956 770.435) rotate(-30)">
      <rect id="Rectangle_7" data-name="Rectangle 7" width="74.854" height="44.78" transform="translate(1393 285)" fill="rgba(255,255,255,0.14)"/>
      <line id="Line_1" data-name="Line 1" y1="22.233" x2="40.511" transform="translate(1427.5 285.157)" fill="none" stroke="#c1c1c1" stroke-width="1"/>
      <line id="Line_2" data-name="Line 2" x2="34.343" y2="22.233" transform="translate(1393.157 285.157)" fill="none" stroke="#c1c1c1" stroke-width="1"/>
    </g>
    <path id="Polygon_1" data-name="Polygon 1" d="M28,0,56,48H0Z" transform="matrix(0.899, -0.438, 0.438, 0.899, 183.313, 168.703)" fill="rgba(35,207,207,0.2)"/>
    <g id="Exclusion_1" data-name="Exclusion 1" transform="translate(1446.176 -424.61)" fill="none">
      <path d="M334.765,725.53a166.991,166.991,0,0,1-33.408-3.368,164.856,164.856,0,0,1-59.273-24.942,166.246,166.246,0,0,1-60.057-72.932,164.93,164.93,0,0,1-9.659-31.116,167.384,167.384,0,0,1,0-66.815,164.858,164.858,0,0,1,24.942-59.273,166.248,166.248,0,0,1,72.932-60.057,164.937,164.937,0,0,1,31.116-9.659,167.384,167.384,0,0,1,66.815,0,164.858,164.858,0,0,1,59.273,24.942A166.247,166.247,0,0,1,487.5,495.242a164.935,164.935,0,0,1,9.659,31.116,167.384,167.384,0,0,1,0,66.815,164.859,164.859,0,0,1-24.942,59.273A166.247,166.247,0,0,1,399.288,712.5a164.935,164.935,0,0,1-31.116,9.659A166.99,166.99,0,0,1,334.765,725.53Zm0-291.1A125.334,125.334,0,1,0,460.1,559.765,125.476,125.476,0,0,0,334.765,434.431ZM333.754,628.5a69.525,69.525,0,1,1,27.147-5.481A69.3,69.3,0,0,1,333.754,628.5Z" stroke="none"/>
      <path d="M 333.7542114257813 588.4970092773438 C 337.8440551757813 588.4970092773438 341.6268920898438 587.7378540039063 345.3197326660156 586.1759643554688 C 348.8564758300781 584.6800537109375 352.0413208007813 582.530029296875 354.7855529785156 579.785888671875 C 357.5300598144531 577.041259765625 359.6800537109375 573.8564453125 361.1761474609375 570.3192138671875 C 362.7378234863281 566.6270141601563 363.4969787597656 562.8441162109375 363.4969787597656 558.7542114257813 C 363.4969787597656 554.6646118164063 362.7378234863281 550.8817749023438 361.1760559082031 547.1893920898438 C 359.6800537109375 543.6524658203125 357.5299682617188 540.4674682617188 354.7855529785156 537.7229614257813 C 352.0410461425781 534.9784545898438 348.8562316894531 532.8284301757813 345.3190612792969 531.3323974609375 C 341.6268005371094 529.7706298828125 337.8439025878906 529.011474609375 333.7542114257813 529.011474609375 C 329.664794921875 529.011474609375 325.8819885253906 529.7706298828125 322.1896362304688 531.3323974609375 C 318.6527404785156 532.8284301757813 315.4676513671875 534.9786376953125 312.7230529785156 537.72314453125 C 309.9785461425781 540.4675903320313 307.8284606933594 543.6525268554688 306.3323974609375 547.1897583007813 C 304.7706298828125 550.8820190429688 304.011474609375 554.664794921875 304.011474609375 558.7542114257813 C 304.011474609375 562.8438720703125 304.7706298828125 566.6267700195313 306.3324890136719 570.3193969726563 C 307.8285522460938 573.8562622070313 309.9785461425781 577.0411987304688 312.722900390625 579.7855224609375 C 315.4674072265625 582.5299682617188 318.6523132324219 584.6800537109375 322.1897277832031 586.1762084960938 C 325.8818969726563 587.7378540039063 329.6646423339844 588.4970092773438 333.7542114257813 588.4970092773438 M 334.764892578125 725.5297241210938 C 323.5179748535156 725.5297241210938 312.2781372070313 724.3965454101563 301.3573913574219 722.161865234375 C 290.7143859863281 719.9839477539063 280.2454833984375 716.7343139648438 270.2416381835938 712.5030517578125 C 260.4194030761719 708.3486328125 250.9458160400391 703.2066040039063 242.0841369628906 697.2197265625 C 233.3069763183594 691.2901000976563 225.052978515625 684.47998046875 217.5513916015625 676.9784545898438 C 210.0500640869141 669.4772338867188 203.2399749755859 661.22314453125 197.31005859375 652.4456787109375 C 191.3231353759766 643.5838623046875 186.1810607910156 634.1102905273438 182.0267333984375 624.2881469726563 C 177.7954711914063 614.2843627929688 174.5458068847656 603.8154296875 172.3678894042969 593.17236328125 C 170.1333160400391 582.2518920898438 169.0002288818359 571.011962890625 169.0002288818359 559.764892578125 C 169.0002288818359 548.5177612304688 170.1333160400391 537.2779541015625 172.3678894042969 526.3574829101563 C 174.5458068847656 515.7142944335938 177.7955627441406 505.2454528808594 182.0267333984375 495.2416076660156 C 186.1811370849609 485.4194641113281 191.3232269287109 475.9458618164063 197.31005859375 467.0841064453125 C 203.2400665283203 458.3065490722656 210.0502319335938 450.0525512695313 217.5513916015625 442.5513610839844 C 225.0527191162109 435.0501098632813 233.3067321777344 428.2399597167969 242.0841369628906 422.3101196289063 C 250.9458160400391 416.3232116699219 260.4194030761719 411.1812133789063 270.2416381835938 407.0267944335938 C 280.2454833984375 402.7955322265625 290.7143859863281 399.5458679199219 301.3573913574219 397.3679504394531 C 312.2779846191406 395.13330078125 323.5178833007813 394.0002136230469 334.764892578125 394.0002136230469 C 346.0120544433594 394.0002136230469 357.2518920898438 395.13330078125 368.1723937988281 397.3679504394531 C 378.8155517578125 399.5458679199219 389.2843933105469 402.7955322265625 399.2881469726563 407.0267944335938 C 409.1103820800781 411.1812133789063 418.5838928222656 416.3232116699219 427.4457397460938 422.3101196289063 C 436.2232971191406 428.2400512695313 444.477294921875 435.0502014160156 451.9783935546875 442.5513610839844 C 459.4796447753906 450.0525512695313 466.289794921875 458.3065490722656 472.2197265625 467.0841064453125 C 478.2066345214844 475.9458618164063 483.3486328125 485.4194641113281 487.5030517578125 495.2416076660156 C 491.7342224121094 505.2454528808594 494.9839782714844 515.7142944335938 497.1618957519531 526.3574829101563 C 499.3965454101563 537.2779541015625 500.5296325683594 548.5177612304688 500.5296325683594 559.764892578125 C 500.5296325683594 571.011962890625 499.3965454101563 582.2518920898438 497.1618957519531 593.17236328125 C 494.9839782714844 603.8154296875 491.7343139648438 614.2843627929688 487.5030517578125 624.2881469726563 C 483.3487243652344 634.1102905273438 478.2066345214844 643.5838623046875 472.2197265625 652.4456787109375 C 466.2898864746094 661.22314453125 459.4796447753906 669.4772338867188 451.9783935546875 676.9784545898438 C 444.47705078125 684.4797973632813 436.2230529785156 691.2899780273438 427.4457397460938 697.2197265625 C 418.5838928222656 703.2066040039063 409.1103820800781 708.3486328125 399.2881469726563 712.5030517578125 C 389.2843933105469 716.7343139648438 378.8155517578125 719.9839477539063 368.1723937988281 722.161865234375 C 357.2518005371094 724.3965454101563 346.0119018554688 725.5297241210938 334.764892578125 725.5297241210938 Z M 334.764892578125 434.4309387207031 C 265.6555480957031 434.4309387207031 209.4309692382813 490.6555480957031 209.4309692382813 559.764892578125 C 209.4309692382813 628.8748168945313 265.6555480957031 685.099853515625 334.764892578125 685.099853515625 C 403.8748168945313 685.099853515625 460.0998229980469 628.8748168945313 460.0998229980469 559.764892578125 C 460.0998229980469 490.6555480957031 403.8748168945313 434.4309387207031 334.764892578125 434.4309387207031 Z M 333.7542114257813 628.4970092773438 C 324.3391418457031 628.4970092773438 315.2056274414063 626.6531372070313 306.6073913574219 623.0162963867188 C 298.3025512695313 619.5037231445313 290.8439025878906 614.4749755859375 284.4388122558594 608.0699462890625 C 278.0337219238281 601.6649780273438 273.0049743652344 594.206298828125 269.4923095703125 585.9013671875 C 265.85546875 577.3031005859375 264.011474609375 568.16943359375 264.011474609375 558.7542114257813 C 264.011474609375 549.3392333984375 265.85546875 540.2056884765625 269.4923095703125 531.6074829101563 C 273.0049743652344 523.3024291992188 278.0337219238281 515.8439331054688 284.4388122558594 509.4388732910156 C 290.8440551757813 503.03369140625 298.3026428222656 498.0049438476563 306.6073913574219 494.4922790527344 C 315.2056274414063 490.85546875 324.3391418457031 489.0114440917969 333.7542114257813 489.0114440917969 C 343.1694641113281 489.0114440917969 352.3031311035156 490.85546875 360.9013977050781 494.4922790527344 C 369.2063903808594 498.0049438476563 376.6649780273438 503.0337829589844 383.0699768066406 509.4388732910156 C 389.4749755859375 515.8439331054688 394.5036315917969 523.3024291992188 398.0162963867188 531.6074829101563 C 401.6530456542969 540.2056274414063 403.4969787597656 549.3392333984375 403.4969787597656 558.7542114257813 C 403.4969787597656 568.1695556640625 401.6530456542969 577.30322265625 398.0162963867188 585.9013671875 C 394.5037231445313 594.206298828125 389.4749755859375 601.6648559570313 383.0699768066406 608.0699462890625 C 376.6648864746094 614.4750366210938 369.206298828125 619.5037231445313 360.9013977050781 623.0162963867188 C 352.3031311035156 626.6531372070313 343.1695556640625 628.4970092773438 333.7542114257813 628.4970092773438 Z" stroke="none" fill="rgba(178,24,142,0.31)"/>
    </g>
    <path id="Polygon_4" data-name="Polygon 4" d="M209.844,47.51a32,32,0,0,1,55.311,0L447,359.9A32,32,0,0,1,419.346,408H55.654A32,32,0,0,1,28,359.9Z" transform="matrix(-0.53, -0.848, 0.848, -0.53, 150.1, 1237.601)" fill="url(#linear-gradient-2)"/>
    <g id="Group_4" data-name="Group 4" transform="translate(-244.044 1415.435) rotate(-30)">
      <rect id="Rectangle_7-2" data-name="Rectangle 7" width="74.854" height="44.78" transform="translate(1393 285)" fill="rgba(255,255,255,0.14)"/>
      <line id="Line_1-2" data-name="Line 1" y1="22.233" x2="40.511" transform="translate(1427.5 285.157)" fill="none" stroke="#c1c1c1" stroke-width="1"/>
      <line id="Line_2-2" data-name="Line 2" x2="34.343" y2="22.233" transform="translate(1393.157 285.157)" fill="none" stroke="#c1c1c1" stroke-width="1"/>
    </g>
  </g>
</svg>
