<svg xmlns="http://www.w3.org/2000/svg" width="1020.441" height="226.79" viewBox="0 0 1920.441 226.79">
  <defs>
    <style>
      .cls-1 {
        fill: #f7fbfc;
      }
    </style>
  </defs>
  <path id="hero_bottom_shape" data-name="hero bottom shape" class="cls-1" d="M1244.983,981.614s-26.195,73.846,157.538,30.769c317.356-75.385,136.661,35.385,206.509,26.154,36.681,5.309,144.253-6.154,244.47-20,97.59-11.437,176.672-19.216,138.179,35.385-51.627,43.077,523.865,52.308,479.83-15.385-60.738-104.615,180.316,2.692,347.725-20,50.223-6.808-48.59-96.923,109.328-44.615,122.994,41.538,236.043-.538,234.525-40.538,2.354-43.077,0,218.538,0,218.538l-1918.105,3.462Z" transform="translate(-1243.693 -928.593)"/>
</svg>
